<?xml version="1.0" encoding="utf-8" standalone="no"?>
<!DOCTYPE svg PUBLIC "-//W3C//DTD SVG 1.1//EN" "http://www.w3.org/Graphics/SVG/1.1/DTD/svg11.dtd">
<svg version="1.1" viewBox="0 0 1417 1417" xmlns="http://www.w3.org/2000/svg">
  <defs />
  <g id="Layer_02">
    <path d="M822.1684,1128.7208 C826.8129,1113.7292 824.5038,1096.4957 816.2034,1082.9272 C807.903,1069.3589 793.61145,1059.4556 778.14935,1056.7639 C712.46313,1045.3483 643.79974,1010.62634 592.1071,958.93365 C540.4144,907.241 505.6925,838.57764 494.2768,772.8914 C491.58527,757.4293 481.68192,743.13776 468.1135,734.83734 C454.54504,726.537 437.31155,724.22784 422.31992,728.87244 C416.11435,730.8292 408.82126,729.4916 403.53812,725.54706 C398.25497,721.6026 394.98175,715.0513 394.98175,708.5 C394.98175,701.9487 398.25497,695.3974 403.53812,691.45294 C408.82126,687.5084 416.11435,686.1708 422.31992,688.12756 C437.31155,692.77216 454.54504,690.463 468.1135,682.16266 C481.68192,673.86224 491.58527,659.5707 494.2768,644.1086 C505.6925,578.42236 540.4144,509.759 592.1071,458.06635 C643.79974,406.37366 712.46313,371.65173 778.14935,360.23602 C793.61145,357.5445 807.9031,347.64114 816.2034,334.0727 C824.5038,320.50427 826.8129,303.27078 822.1684,288.27914 C820.21155,282.07358 821.5492,274.7805 825.4937,269.49734 C829.4382,264.2142 835.9895,260.94098 842.5408,260.94098 C849.09204,260.94098 855.6434,264.2142 859.5878,269.49734 C863.53235,274.7805 864.87,282.07358 862.9132,288.27914 C858.2686,303.27078 860.57776,320.50427 868.8781,334.0727 C877.1785,347.64114 891.4701,357.5445 906.9322,360.23602 C933.8374,365.20093 960.336,373.36777 985.36816,384.4099 C1000.9394,391.6988 1021.88727,390.56122 1036.5776,381.629 C1096.364,347.11127 1156.1505,312.59354 1215.937,278.0758 C1227.5651,271.76828 1238.3418,258.6165 1242.3517,243.65152 C1246.3615,228.68655 1243.6045,211.9084 1236.688,200.63185 C1230.777,190.39368 1224.866,180.1555 1218.955,169.91733 C1200.9332,136.30977 1158.8759,112.027916 1120.76,113.22441 C935.2805,113.22441 749.801,113.22441 564.3216,113.22441 C526.2057,112.027916 484.14832,136.30977 466.1266,169.91733 C373.38684,330.54724 280.64713,491.17715 187.9074,651.80707 C167.81328,684.21814 167.81328,732.78186 187.9074,765.19293 C280.64713,925.8228 373.38684,1086.4528 466.1266,1247.0826 C484.14832,1280.6902 526.2057,1304.972 564.3216,1303.7756 C749.801,1303.7756 935.2805,1303.7756 1120.76,1303.7756 C1158.8759,1304.972 1200.9332,1280.6902 1218.955,1247.0826 C1224.866,1236.8445 1230.777,1226.6063 1236.688,1216.3682 C1243.6045,1205.0916 1246.3615,1188.3135 1242.3517,1173.3485 C1238.3418,1158.3835 1227.5651,1145.2317 1215.937,1138.9242 C1156.1505,1104.4065 1096.364,1069.8887 1036.5776,1035.371 C1021.88727,1026.4388 1000.9394,1025.3013 985.36816,1032.5901 C960.336,1043.6322 933.8374,1051.7991 906.9322,1056.7639 C891.4701,1059.4556 877.1785,1069.3589 868.8781,1082.9272 C860.57776,1096.4957 858.2686,1113.7292 862.9132,1128.7208 C864.87,1134.9264 863.53235,1142.2195 859.5878,1147.5027 C855.6434,1152.7858 849.09204,1156.059 842.5408,1156.059 C835.9895,1156.059 829.4382,1152.7858 825.4937,1147.5027 C821.5492,1142.2195 820.21155,1134.9264 822.1684,1128.7208 z" fill="#000000" fill-opacity="1" />
  </g>
</svg>